<svg width="29" height="29" viewBox="0 0 29 29" fill="none" xmlns="http://www.w3.org/2000/svg">
<path d="M16.9749 6.68946C16.5445 5.7028 15.9149 4.81571 15.1256 4.08383C14.3362 3.35195 13.4042 2.79107 12.3878 2.43637C11.3715 2.08167 10.2929 1.9408 9.21955 2.02259C8.14622 2.10439 7.10138 2.40708 6.15055 2.9117C5.19972 3.41631 4.36341 4.11195 3.69408 4.95499C3.02476 5.79803 2.53685 6.77028 2.26097 7.81077C1.98509 8.85125 1.92718 9.93751 2.09087 11.0014C2.25457 12.0653 2.63634 13.084 3.21224 13.9934L2.00143 17.6258L5.63386 16.415C5.9682 16.6275 6.32129 16.815 6.68844 16.9759M19.1871 26.9999C17.4539 26.9996 15.7699 26.4229 14.4004 25.3606C13.0309 24.2982 12.0536 22.8106 11.6223 21.1319C11.191 19.4531 11.3303 17.6786 12.0182 16.0877C12.7062 14.4968 13.9036 13.1799 15.4221 12.3443C16.9407 11.5087 18.694 11.2018 20.406 11.472C22.1181 11.7422 23.6917 12.5741 24.879 13.8367C26.0664 15.0994 26.8001 16.7211 26.9647 18.4465C27.1293 20.1719 26.7153 21.9031 25.788 23.3674L26.9988 26.9999L23.3664 25.789C22.117 26.5822 20.6671 27.0023 19.1871 26.9999Z" stroke="#2D2C2B" stroke-opacity="0.75" stroke-width="2.5" stroke-linecap="round" stroke-linejoin="round"/>
</svg>
