<?xml version="1.0" encoding="UTF-8"?>
<!DOCTYPE svg PUBLIC "-//W3C//DTD SVG 1.1//EN" "http://www.w3.org/Graphics/SVG/1.1/DTD/svg11.dtd">
<svg xmlns="http://www.w3.org/2000/svg" version="1.1" width="512px" height="512px" style="shape-rendering:geometricPrecision; text-rendering:geometricPrecision; image-rendering:optimizeQuality; fill-rule:evenodd; clip-rule:evenodd" xmlns:xlink="http://www.w3.org/1999/xlink">
<g><path style="opacity:0.934" fill="#000000" d="M 90.5,-0.5 C 129.5,-0.5 168.5,-0.5 207.5,-0.5C 210.927,2.02301 212.261,5.52301 211.5,10C 208.018,43.6397 189.685,63.6397 156.5,70C 137.17,70.5 117.836,70.6666 98.5,70.5C 94.8573,89.3185 83.524,98.1518 64.5,97C 57.7262,90.0821 50.8928,89.9154 44,96.5C 41.1859,101.006 40.8526,105.673 43,110.5C 46.2992,113.978 49.9659,116.978 54,119.5C 59.6826,150.853 78.3492,167.853 110,170.5C 140.48,168.35 158.813,152.35 165,122.5C 165.333,107.167 165.667,91.8333 166,76.5C 169.274,71.2625 173.774,70.0958 179.5,73C 180.126,73.7504 180.626,74.5838 181,75.5C 181.667,92.5 181.667,109.5 181,126.5C 172.27,164.233 148.603,184.233 110,186.5C 78.5335,185.024 56.2001,170.024 43,141.5C 41.5921,137.943 40.5921,134.276 40,130.5C 24.6263,119.062 21.293,104.729 30,87.5C 42.0462,74.2229 55.7129,72.2229 71,81.5C 77.0748,79.7567 80.7415,75.7567 82,69.5C 82.3333,65.8333 82.6667,62.1667 83,58.5C 84.1667,57.3333 85.3333,56.1667 86.5,55C 108.833,54.6667 131.167,54.3333 153.5,54C 175.409,49.9233 189.076,37.09 194.5,15.5C 160.832,15.3333 127.165,15.5 93.5,16C 68.0856,22.6364 54.9189,39.1364 54,65.5C 49.4865,71.747 44.4865,72.0804 39,66.5C 38.8383,30.8151 56.005,8.48174 90.5,-0.5 Z"/></g>
<g><path style="opacity:0.931" fill="#000000" d="M 343.5,-0.5 C 358.833,-0.5 374.167,-0.5 389.5,-0.5C 404.566,0.764914 419.232,4.26491 433.5,10C 438.368,14.1721 438.702,18.6721 434.5,23.5C 432.817,24.5921 430.984,25.2587 429,25.5C 400.224,15.6562 370.724,12.8228 340.5,17C 321.467,21.2315 312.8,33.0648 314.5,52.5C 319.552,52.5498 324.552,52.0498 329.5,51C 335.925,48.9532 341.925,46.1199 347.5,42.5C 349.541,43.2357 351.541,44.0691 353.5,45C 363.766,58.4681 377.433,65.6348 394.5,66.5C 402.157,65.163 409.823,64.3296 417.5,64C 419,64.8333 420.167,66 421,67.5C 421.179,70.5535 421.679,73.5535 422.5,76.5C 438.932,74.3007 450.098,80.9673 456,96.5C 458.794,110.644 454.294,121.644 442.5,129.5C 432.528,165.236 409.028,184.236 372,186.5C 333.371,184.204 309.704,164.204 301,126.5C 300.031,110.408 300.364,94.4078 302,78.5C 305.256,76.5715 308.756,76.0715 312.5,77C 314.049,78.214 315.215,79.714 316,81.5C 316.333,95.5 316.667,109.5 317,123.5C 323.636,152.799 341.969,168.466 372,170.5C 403.651,167.853 422.317,150.853 428,119.5C 432.034,116.978 435.701,113.978 439,110.5C 442.303,100.105 438.637,93.7715 428,91.5C 423.995,92.4187 420.495,94.2521 417.5,97C 412.269,98.7238 408.435,97.2238 406,92.5C 405.501,88.8484 405.335,85.1817 405.5,81.5C 382.615,84.4818 362.781,78.1485 346,62.5C 332.997,67.7297 319.497,69.8964 305.5,69C 301.105,66.5271 298.938,62.6938 299,57.5C 295.559,24.1112 310.392,4.77784 343.5,-0.5 Z"/></g>
<g><path style="opacity:0.927" fill="#000000" d="M 444.5,21.5 C 447.649,21.2114 450.649,21.7114 453.5,23C 471.005,40.5134 481.171,61.68 484,86.5C 488.547,125.551 483.214,163.218 468,199.5C 464,208.167 460,216.833 456,225.5C 450.954,230.824 445.954,230.824 441,225.5C 440.333,223.167 440.333,220.833 441,218.5C 458.696,185.88 468.196,151.046 469.5,114C 470.303,89.3753 464.469,66.542 452,45.5C 448.702,41.2002 445.035,37.2002 441,33.5C 439.593,28.6427 440.76,24.6427 444.5,21.5 Z"/></g>
<g><path style="opacity:0.876" fill="#000000" d="M 245.5,25.5 C 250.421,25.0429 253.921,27.0429 256,31.5C 256.667,36.1667 256.667,40.8333 256,45.5C 255.654,47.8477 254.487,49.6811 252.5,51C 248.091,52.2618 244.257,51.4285 241,48.5C 239.053,42.1522 239.053,35.8188 241,29.5C 242.397,27.9297 243.897,26.5964 245.5,25.5 Z"/></g>
<g><path style="opacity:0.883" fill="#000000" d="M 210.5,38.5 C 213.32,38.2475 215.986,38.7475 218.5,40C 221,42.5 223.5,45 226,47.5C 228.167,57.3333 224.333,61.1667 214.5,59C 212,56.5 209.5,54 207,51.5C 204.628,46.1273 205.795,41.794 210.5,38.5 Z"/></g>
<g><path style="opacity:0.88" fill="#000000" d="M 279.5,38.5 C 287.658,37.8229 291.158,41.4895 290,49.5C 287.537,52.9646 284.704,56.1312 281.5,59C 271.667,61.1667 267.833,57.3333 270,47.5C 273.062,44.2678 276.229,41.2678 279.5,38.5 Z"/></g>
<g><path style="opacity:0.933" fill="#000000" d="M 159.5,511.5 C 147.833,511.5 136.167,511.5 124.5,511.5C 122.226,509.367 120.892,506.701 120.5,503.5C 146.531,454.546 150.531,403.88 132.5,351.5C 131.667,351.167 130.833,350.833 130,350.5C 112.552,354.01 95.0524,354.344 77.5,351.5C 76.8333,351.833 76.1667,352.167 75.5,352.5C 90.2502,400.995 87.5835,448.495 67.5,495C 72.5,495.333 77.5,495.667 82.5,496C 89.5935,500.307 90.2602,505.474 84.5,511.5C 72.8333,511.5 61.1667,511.5 49.5,511.5C 47.3271,509.508 45.9937,507.008 45.5,504C 67.7234,462.436 73.8901,418.603 64,372.5C 62.0008,362.836 59.0008,353.503 55,344.5C 46.1371,339.309 38.1371,332.976 31,325.5C 30.3961,315.957 31.8961,306.791 35.5,298C 42.7548,294.458 47.4214,296.458 49.5,304C 48.1737,309.114 47.6737,314.28 48,319.5C 66.5587,334.418 87.7254,340.252 111.5,337C 124.296,335.551 136.63,332.384 148.5,327.5C 143.771,316.479 139.937,305.145 137,293.5C 131.998,273.324 127.832,252.991 124.5,232.5C 124,232.167 123.5,231.833 123,231.5C 109.568,234.618 96.0683,235.118 82.5,233C 76.3069,225.64 77.8069,220.473 87,217.5C 98.9335,218.886 110.767,218.22 122.5,215.5C 121.998,210.154 121.332,204.821 120.5,199.5C 120.828,192.338 124.495,189.505 131.5,191C 133.286,191.785 134.786,192.951 136,194.5C 137.03,198.773 137.697,203.106 138,207.5C 138.308,208.308 138.808,208.975 139.5,209.5C 159.318,200.528 176.484,187.861 191,171.5C 205.696,154.117 218.029,135.117 228,114.5C 228.333,100.833 228.667,87.1667 229,73.5C 231.955,69.7235 235.788,68.5568 240.5,70C 242.049,71.214 243.215,72.714 244,74.5C 244.667,89.5 244.667,104.5 244,119.5C 226.786,158.108 200.953,189.608 166.5,214C 158.446,218.694 150.112,222.861 141.5,226.5C 145.044,262.843 153.711,298.01 167.5,332C 167.561,334.261 166.894,336.261 165.5,338C 160.401,340.883 155.067,343.217 149.5,345C 148.978,345.561 148.645,346.228 148.5,347C 161.806,387.472 162.973,428.305 152,469.5C 149.521,478.106 146.354,486.44 142.5,494.5C 148.644,494.971 154.644,495.971 160.5,497.5C 164.637,502.484 164.303,507.151 159.5,511.5 Z"/></g>
<g><path style="opacity:0.932" fill="#000000" d="M 427.5,511.5 C 416.167,511.5 404.833,511.5 393.5,511.5C 389.759,508.444 388.593,504.444 390,499.5C 391.319,497.513 393.152,496.346 395.5,496C 400.155,495.501 404.821,495.334 409.5,495.5C 394.458,461.037 389.458,425.204 394.5,388C 383.172,387.5 371.838,387.333 360.5,387.5C 356.764,417.605 359.93,446.939 370,475.5C 374.043,485.084 378.21,494.584 382.5,504C 381.974,506.963 380.641,509.463 378.5,511.5C 366.833,511.5 355.167,511.5 343.5,511.5C 339.064,507.614 338.397,503.114 341.5,498C 342.833,497.333 344.167,496.667 345.5,496C 350.5,495.667 355.5,495.333 360.5,495C 344.819,460.055 339.485,423.555 344.5,385.5C 330.582,384.292 316.916,381.792 303.5,378C 300.606,375.091 299.773,371.591 301,367.5C 317.131,319.975 330.298,271.641 340.5,222.5C 340.43,221.228 340.097,220.062 339.5,219C 319.663,208.171 302.496,194.005 288,176.5C 274.666,159.849 263.333,141.849 254,122.5C 252.378,106.234 252.045,89.9004 253,73.5C 253.5,71.6667 254.667,70.5 256.5,70C 262.186,68.2611 266.02,70.0945 268,75.5C 268.333,88.8333 268.667,102.167 269,115.5C 284.962,150.594 308.795,179.094 340.5,201C 341.5,201.5 342.5,202 343.5,202.5C 344.65,199.253 345.483,195.92 346,192.5C 348.435,187.776 352.269,186.276 357.5,188C 359.333,188.5 360.5,189.667 361,191.5C 359.513,212.087 356.18,232.421 351,252.5C 341.609,290.503 331.109,328.17 319.5,365.5C 361.652,373.988 403.652,373.321 445.5,363.5C 445.251,312.664 435.751,263.664 417,216.5C 413.527,208.221 409.527,200.221 405,192.5C 404,183.836 407.834,180.336 416.5,182C 423.492,192.148 429.326,202.981 434,214.5C 453.367,265.37 462.367,318.037 461,372.5C 460.167,374.667 458.667,376.167 456.5,377C 441.499,381.667 426.166,384.5 410.5,385.5C 404.819,426.082 411.652,464.416 431,500.5C 432.338,505.04 431.171,508.707 427.5,511.5 Z"/></g>
<g><path style="opacity:0.894" fill="#000000" d="M 116.5,81.5 C 121.28,80.6409 124.78,82.3075 127,86.5C 127.667,92.1667 127.667,97.8333 127,103.5C 121.908,110.131 116.908,110.131 112,103.5C 111.333,97.5 111.333,91.5 112,85.5C 113.397,83.9297 114.897,82.5964 116.5,81.5 Z"/></g>
<g><path style="opacity:0.902" fill="#000000" d="M 143.5,81.5 C 147.909,80.6185 151.409,81.9518 154,85.5C 154.667,91.5 154.667,97.5 154,103.5C 148.692,110.197 143.692,109.864 139,102.5C 138.333,97.5 138.333,92.5 139,87.5C 139.599,84.7458 141.099,82.7458 143.5,81.5 Z"/></g>
<g><path style="opacity:0.899" fill="#000000" d="M 331.5,81.5 C 337.192,80.2601 341.026,82.2601 343,87.5C 343.667,92.5 343.667,97.5 343,102.5C 338.775,109.358 333.775,110.025 328,104.5C 327.333,98.1667 327.333,91.8333 328,85.5C 329.376,84.2949 330.542,82.9616 331.5,81.5 Z"/></g>
<g><path style="opacity:0.897" fill="#000000" d="M 359.5,81.5 C 364.28,80.6409 367.78,82.3075 370,86.5C 370.667,92.1667 370.667,97.8333 370,103.5C 365,110.167 360,110.167 355,103.5C 354.333,97.8333 354.333,92.1667 355,86.5C 356.025,84.313 357.525,82.6464 359.5,81.5 Z"/></g>
<g><path style="opacity:0.907" fill="#000000" d="M 94.5,124.5 C 96.6547,124.372 98.6547,124.872 100.5,126C 106.984,135.411 115.984,140.411 127.5,141C 131.926,146.441 131.259,151.108 125.5,155C 109.451,156.393 97.2846,150.226 89,136.5C 87.0357,130.532 88.8691,126.532 94.5,124.5 Z"/></g>
<g><path style="opacity:0.906" fill="#000000" d="M 383.5,124.5 C 391.717,124.547 394.883,128.547 393,136.5C 384.444,150.528 371.944,156.694 355.5,155C 349.92,149.514 350.253,144.514 356.5,140C 362.588,139.728 368.255,138.062 373.5,135C 376.391,130.946 379.724,127.446 383.5,124.5 Z"/></g>
<g><path style="opacity:0.917" fill="#000000" d="M 69.5,183.5 C 77.6138,182.121 81.4472,185.454 81,193.5C 68.7296,222.911 59.3963,253.244 53,284.5C 45.6913,290.701 40.5246,289.201 37.5,280C 43.7115,249.7 52.5449,220.2 64,191.5C 65.129,188.206 66.9624,185.54 69.5,183.5 Z"/></g>
<g><path style="opacity:0.922" fill="#000000" d="M 394.5,221.5 C 396.857,221.337 399.19,221.503 401.5,222C 416.36,240.553 426.86,261.386 433,284.5C 436.556,309.61 425.723,321.11 400.5,319C 398.5,318.333 396.5,317.667 394.5,317C 385.694,311.027 377.028,304.861 368.5,298.5C 365.736,299.761 363.403,301.595 361.5,304C 351.667,306.167 347.833,302.333 350,292.5C 357.6,282.631 367.1,280.131 378.5,285C 386.167,290.667 393.833,296.333 401.5,302C 406.913,304.459 411.747,303.626 416,299.5C 418.052,291.675 417.385,284.009 414,276.5C 407.539,260.905 399.539,246.238 390,232.5C 388.776,227.626 390.276,223.959 394.5,221.5 Z"/></g>
</svg>
