<svg width="28" height="28" viewBox="0 0 28 28" fill="none" xmlns="http://www.w3.org/2000/svg">
<path d="M1.35109 14.8655H2.70247V24.3251C2.70247 25.8157 3.91466 27.0279 5.40523 27.0279H21.6218C23.1124 27.0279 24.3246 25.8157 24.3246 24.3251V14.8655H25.6759C25.9432 14.8654 26.2044 14.7861 26.4266 14.6376C26.6487 14.4891 26.8219 14.2781 26.9242 14.0312C27.0264 13.7843 27.0532 13.5126 27.0011 13.2505C26.949 12.9884 26.8203 12.7476 26.6314 12.5586L14.4689 0.396226C14.3435 0.270621 14.1946 0.170973 14.0307 0.102984C13.8667 0.0349955 13.691 0 13.5135 0C13.336 0 13.1603 0.0349955 12.9964 0.102984C12.8324 0.170973 12.6835 0.270621 12.5581 0.396226L0.395666 12.5586C0.206731 12.7476 0.0780706 12.9884 0.0259512 13.2505C-0.0261682 13.5126 0.000593193 13.7843 0.102852 14.0312C0.205111 14.2781 0.378276 14.4891 0.600457 14.6376C0.822637 14.7861 1.08386 14.8654 1.35109 14.8655ZM10.8108 24.3251V17.5682H16.2163V24.3251H10.8108ZM13.5135 3.2625L21.6218 11.3708V17.5682L21.6231 24.3251H18.919V17.5682C18.919 16.0776 17.7068 14.8655 16.2163 14.8655H10.8108C9.32018 14.8655 8.10799 16.0776 8.10799 17.5682V24.3251H5.40523V11.3708L13.5135 3.2625Z" fill="#2D2C2B" fill-opacity="0.75"/>
</svg>
