<svg width="22" height="26" viewBox="0 0 22 26" fill="none" xmlns="http://www.w3.org/2000/svg">
<path d="M16.8288 13.5344C16.3757 13.2511 15.7765 13.3884 15.4932 13.8415C15.2098 14.2946 15.3471 14.8925 15.8003 15.1771C18.469 16.8472 20.0617 19.7207 20.0617 22.8625V23.6264L1.93862 23.6252V22.8613C1.93862 19.7195 3.53137 16.8474 6.2001 15.1759C6.65322 14.8913 6.79177 14.2934 6.50716 13.8402C6.22382 13.3859 5.62592 13.2498 5.17155 13.5332C1.93358 15.5603 0 19.0479 0 22.8611V24.5936C0 25.1291 0.434393 25.5635 0.96989 25.5635H21.0314C21.5669 25.5635 22 25.1291 22 24.5949V22.8624C22.0012 19.0476 20.0677 15.5613 16.8284 13.5345L16.8288 13.5344Z" fill="#2D2C2B" fill-opacity="0.75"/>
<path d="M11.0009 13.8006C14.8054 13.8006 17.9012 10.705 17.9012 6.9003C17.9012 3.09561 14.8056 0 11.0009 0C7.1962 0 4.10059 3.09561 4.10059 6.9003C4.10059 10.705 7.1962 13.8006 11.0009 13.8006ZM11.0009 1.93869C13.737 1.93869 15.9625 4.16428 15.9625 6.9003C15.9625 9.63633 13.7369 11.8619 11.0009 11.8619C8.26486 11.8619 6.03928 9.63633 6.03928 6.9003C6.03928 4.16428 8.26486 1.93869 11.0009 1.93869Z" fill="#2D2C2B" fill-opacity="0.75"/>
</svg>
